<svg width="144" height="104" viewBox="0 0 144 104" fill="none" xmlns="http://www.w3.org/2000/svg">
<path d="M6.3871 2.5C6.3871 3.88071 4.9573 5 3.19355 5C1.4298 5 0 3.88071 0 2.5C0 1.11929 1.4298 0 3.19355 0C4.9573 0 6.3871 1.11929 6.3871 2.5Z" fill="#FFDE21" fill-opacity="0.2"/>
<path d="M25.5484 2.5C25.5484 3.88071 24.1186 5 22.3548 5C20.5911 5 19.1613 3.88071 19.1613 2.5C19.1613 1.11929 20.5911 0 22.3548 0C24.1186 0 25.5484 1.11929 25.5484 2.5Z" fill="#FFDE21" fill-opacity="0.2"/>
<path d="M44.7097 2.5C44.7097 3.88071 43.2799 5 41.5161 5C39.7524 5 38.3226 3.88071 38.3226 2.5C38.3226 1.11929 39.7524 0 41.5161 0C43.2799 0 44.7097 1.11929 44.7097 2.5Z" fill="#FFDE21" fill-opacity="0.2"/>
<path d="M63.871 2.5C63.871 3.88071 62.4412 5 60.6774 5C58.9137 5 57.4839 3.88071 57.4839 2.5C57.4839 1.11929 58.9137 0 60.6774 0C62.4412 0 63.871 1.11929 63.871 2.5Z" fill="#FFDE21" fill-opacity="0.2"/>
<path d="M83.0323 2.5C83.0323 3.88071 81.6025 5 79.8387 5C78.075 5 76.6452 3.88071 76.6452 2.5C76.6452 1.11929 78.075 0 79.8387 0C81.6025 0 83.0323 1.11929 83.0323 2.5Z" fill="#FFDE21" fill-opacity="0.2"/>
<path d="M102.194 2.5C102.194 3.88071 100.764 5 99 5C97.2363 5 95.8064 3.88071 95.8064 2.5C95.8064 1.11929 97.2363 0 99 0C100.764 0 102.194 1.11929 102.194 2.5Z" fill="#FFDE21" fill-opacity="0.2"/>
<path d="M121.355 2.5C121.355 3.88071 119.925 5 118.161 5C116.398 5 114.968 3.88071 114.968 2.5C114.968 1.11929 116.398 0 118.161 0C119.925 0 121.355 1.11929 121.355 2.5Z" fill="#FFDE21" fill-opacity="0.2"/>
<path d="M140.516 2.5C140.516 3.88071 139.086 5 137.323 5C135.559 5 134.129 3.88071 134.129 2.5C134.129 1.11929 135.559 0 137.323 0C139.086 0 140.516 1.11929 140.516 2.5Z" fill="#FFDE21" fill-opacity="0.2"/>
<path d="M159.677 2.5C159.677 3.88071 158.248 5 156.484 5C154.72 5 153.29 3.88071 153.29 2.5C153.29 1.11929 154.72 0 156.484 0C158.248 0 159.677 1.11929 159.677 2.5Z" fill="#FFDE21" fill-opacity="0.2"/>
<path d="M178.839 2.5C178.839 3.88071 177.409 5 175.645 5C173.881 5 172.452 3.88071 172.452 2.5C172.452 1.11929 173.881 0 175.645 0C177.409 0 178.839 1.11929 178.839 2.5Z" fill="#FFDE21" fill-opacity="0.2"/>
<path d="M198 2.5C198 3.88071 196.57 5 194.806 5C193.043 5 191.613 3.88071 191.613 2.5C191.613 1.11929 193.043 0 194.806 0C196.57 0 198 1.11929 198 2.5Z" fill="#FFDE21" fill-opacity="0.2"/>
<path d="M6.3871 17.5C6.3871 18.8807 4.9573 20 3.19355 20C1.4298 20 0 18.8807 0 17.5C0 16.1193 1.4298 15 3.19355 15C4.9573 15 6.3871 16.1193 6.3871 17.5Z" fill="#FFDE21" fill-opacity="0.2"/>
<path d="M25.5484 17.5C25.5484 18.8807 24.1186 20 22.3548 20C20.5911 20 19.1613 18.8807 19.1613 17.5C19.1613 16.1193 20.5911 15 22.3548 15C24.1186 15 25.5484 16.1193 25.5484 17.5Z" fill="#FFDE21" fill-opacity="0.2"/>
<path d="M44.7097 17.5C44.7097 18.8807 43.2799 20 41.5161 20C39.7524 20 38.3226 18.8807 38.3226 17.5C38.3226 16.1193 39.7524 15 41.5161 15C43.2799 15 44.7097 16.1193 44.7097 17.5Z" fill="#FFDE21" fill-opacity="0.2"/>
<path d="M63.871 17.5C63.871 18.8807 62.4412 20 60.6774 20C58.9137 20 57.4839 18.8807 57.4839 17.5C57.4839 16.1193 58.9137 15 60.6774 15C62.4412 15 63.871 16.1193 63.871 17.5Z" fill="#FFDE21" fill-opacity="0.2"/>
<path d="M83.0323 17.5C83.0323 18.8807 81.6025 20 79.8387 20C78.075 20 76.6452 18.8807 76.6452 17.5C76.6452 16.1193 78.075 15 79.8387 15C81.6025 15 83.0323 16.1193 83.0323 17.5Z" fill="#FFDE21" fill-opacity="0.2"/>
<path d="M102.194 17.5C102.194 18.8807 100.764 20 99 20C97.2363 20 95.8064 18.8807 95.8064 17.5C95.8064 16.1193 97.2363 15 99 15C100.764 15 102.194 16.1193 102.194 17.5Z" fill="#FFDE21" fill-opacity="0.2"/>
<path d="M121.355 17.5C121.355 18.8807 119.925 20 118.161 20C116.398 20 114.968 18.8807 114.968 17.5C114.968 16.1193 116.398 15 118.161 15C119.925 15 121.355 16.1193 121.355 17.5Z" fill="#FFDE21" fill-opacity="0.2"/>
<path d="M140.516 17.5C140.516 18.8807 139.086 20 137.323 20C135.559 20 134.129 18.8807 134.129 17.5C134.129 16.1193 135.559 15 137.323 15C139.086 15 140.516 16.1193 140.516 17.5Z" fill="#FFDE21" fill-opacity="0.2"/>
<path d="M159.677 17.5C159.677 18.8807 158.248 20 156.484 20C154.72 20 153.29 18.8807 153.29 17.5C153.29 16.1193 154.72 15 156.484 15C158.248 15 159.677 16.1193 159.677 17.5Z" fill="#FFDE21" fill-opacity="0.2"/>
<path d="M178.839 17.5C178.839 18.8807 177.409 20 175.645 20C173.881 20 172.452 18.8807 172.452 17.5C172.452 16.1193 173.881 15 175.645 15C177.409 15 178.839 16.1193 178.839 17.5Z" fill="#FFDE21" fill-opacity="0.2"/>
<path d="M198 17.5C198 18.8807 196.57 20 194.806 20C193.043 20 191.613 18.8807 191.613 17.5C191.613 16.1193 193.043 15 194.806 15C196.57 15 198 16.1193 198 17.5Z" fill="#FFDE21" fill-opacity="0.2"/>
<path d="M6.3871 32.5C6.3871 33.8807 4.9573 35 3.19355 35C1.4298 35 0 33.8807 0 32.5C0 31.1193 1.4298 30 3.19355 30C4.9573 30 6.3871 31.1193 6.3871 32.5Z" fill="#FFDE21" fill-opacity="0.2"/>
<path d="M25.5484 32.5C25.5484 33.8807 24.1186 35 22.3548 35C20.5911 35 19.1613 33.8807 19.1613 32.5C19.1613 31.1193 20.5911 30 22.3548 30C24.1186 30 25.5484 31.1193 25.5484 32.5Z" fill="#FFDE21" fill-opacity="0.2"/>
<path d="M44.7097 32.5C44.7097 33.8807 43.2799 35 41.5161 35C39.7524 35 38.3226 33.8807 38.3226 32.5C38.3226 31.1193 39.7524 30 41.5161 30C43.2799 30 44.7097 31.1193 44.7097 32.5Z" fill="#FFDE21" fill-opacity="0.2"/>
<path d="M63.871 32.5C63.871 33.8807 62.4412 35 60.6774 35C58.9137 35 57.4839 33.8807 57.4839 32.5C57.4839 31.1193 58.9137 30 60.6774 30C62.4412 30 63.871 31.1193 63.871 32.5Z" fill="#FFDE21" fill-opacity="0.2"/>
<path d="M83.0323 32.5C83.0323 33.8807 81.6025 35 79.8387 35C78.075 35 76.6452 33.8807 76.6452 32.5C76.6452 31.1193 78.075 30 79.8387 30C81.6025 30 83.0323 31.1193 83.0323 32.5Z" fill="#FFDE21" fill-opacity="0.2"/>
<path d="M102.194 32.5C102.194 33.8807 100.764 35 99 35C97.2363 35 95.8064 33.8807 95.8064 32.5C95.8064 31.1193 97.2363 30 99 30C100.764 30 102.194 31.1193 102.194 32.5Z" fill="#FFDE21" fill-opacity="0.2"/>
<path d="M121.355 32.5C121.355 33.8807 119.925 35 118.161 35C116.398 35 114.968 33.8807 114.968 32.5C114.968 31.1193 116.398 30 118.161 30C119.925 30 121.355 31.1193 121.355 32.5Z" fill="#FFDE21" fill-opacity="0.2"/>
<path d="M140.516 32.5C140.516 33.8807 139.086 35 137.323 35C135.559 35 134.129 33.8807 134.129 32.5C134.129 31.1193 135.559 30 137.323 30C139.086 30 140.516 31.1193 140.516 32.5Z" fill="#FFDE21" fill-opacity="0.2"/>
<path d="M159.677 32.5C159.677 33.8807 158.248 35 156.484 35C154.72 35 153.29 33.8807 153.29 32.5C153.29 31.1193 154.72 30 156.484 30C158.248 30 159.677 31.1193 159.677 32.5Z" fill="#FFDE21" fill-opacity="0.2"/>
<path d="M178.839 32.5C178.839 33.8807 177.409 35 175.645 35C173.881 35 172.452 33.8807 172.452 32.5C172.452 31.1193 173.881 30 175.645 30C177.409 30 178.839 31.1193 178.839 32.5Z" fill="#FFDE21" fill-opacity="0.2"/>
<path d="M198 32.5C198 33.8807 196.57 35 194.806 35C193.043 35 191.613 33.8807 191.613 32.5C191.613 31.1193 193.043 30 194.806 30C196.57 30 198 31.1193 198 32.5Z" fill="#FFDE21" fill-opacity="0.2"/>
<path d="M6.3871 47.5C6.3871 48.8807 4.9573 50 3.19355 50C1.4298 50 0 48.8807 0 47.5C0 46.1193 1.4298 45 3.19355 45C4.9573 45 6.3871 46.1193 6.3871 47.5Z" fill="#FFDE21" fill-opacity="0.2"/>
<path d="M25.5484 47.5C25.5484 48.8807 24.1186 50 22.3548 50C20.5911 50 19.1613 48.8807 19.1613 47.5C19.1613 46.1193 20.5911 45 22.3548 45C24.1186 45 25.5484 46.1193 25.5484 47.5Z" fill="#FFDE21" fill-opacity="0.2"/>
<path d="M44.7097 47.5C44.7097 48.8807 43.2799 50 41.5161 50C39.7524 50 38.3226 48.8807 38.3226 47.5C38.3226 46.1193 39.7524 45 41.5161 45C43.2799 45 44.7097 46.1193 44.7097 47.5Z" fill="#FFDE21" fill-opacity="0.2"/>
<path d="M63.871 47.5C63.871 48.8807 62.4412 50 60.6774 50C58.9137 50 57.4839 48.8807 57.4839 47.5C57.4839 46.1193 58.9137 45 60.6774 45C62.4412 45 63.871 46.1193 63.871 47.5Z" fill="#FFDE21" fill-opacity="0.2"/>
<path d="M83.0323 47.5C83.0323 48.8807 81.6025 50 79.8387 50C78.075 50 76.6452 48.8807 76.6452 47.5C76.6452 46.1193 78.075 45 79.8387 45C81.6025 45 83.0323 46.1193 83.0323 47.5Z" fill="#FFDE21" fill-opacity="0.2"/>
<path d="M102.194 47.5C102.194 48.8807 100.764 50 99 50C97.2363 50 95.8064 48.8807 95.8064 47.5C95.8064 46.1193 97.2363 45 99 45C100.764 45 102.194 46.1193 102.194 47.5Z" fill="#FFDE21" fill-opacity="0.2"/>
<path d="M121.355 47.5C121.355 48.8807 119.925 50 118.161 50C116.398 50 114.968 48.8807 114.968 47.5C114.968 46.1193 116.398 45 118.161 45C119.925 45 121.355 46.1193 121.355 47.5Z" fill="#FFDE21" fill-opacity="0.2"/>
<path d="M140.516 47.5C140.516 48.8807 139.086 50 137.323 50C135.559 50 134.129 48.8807 134.129 47.5C134.129 46.1193 135.559 45 137.323 45C139.086 45 140.516 46.1193 140.516 47.5Z" fill="#FFDE21" fill-opacity="0.2"/>
<path d="M159.677 47.5C159.677 48.8807 158.248 50 156.484 50C154.72 50 153.29 48.8807 153.29 47.5C153.29 46.1193 154.72 45 156.484 45C158.248 45 159.677 46.1193 159.677 47.5Z" fill="#FFDE21" fill-opacity="0.2"/>
<path d="M178.839 47.5C178.839 48.8807 177.409 50 175.645 50C173.881 50 172.452 48.8807 172.452 47.5C172.452 46.1193 173.881 45 175.645 45C177.409 45 178.839 46.1193 178.839 47.5Z" fill="#FFDE21" fill-opacity="0.2"/>
<path d="M198 47.5C198 48.8807 196.57 50 194.806 50C193.043 50 191.613 48.8807 191.613 47.5C191.613 46.1193 193.043 45 194.806 45C196.57 45 198 46.1193 198 47.5Z" fill="#FFDE21" fill-opacity="0.2"/>
<path d="M6.3871 62.5C6.3871 63.8807 4.9573 65 3.19355 65C1.4298 65 0 63.8807 0 62.5C0 61.1193 1.4298 60 3.19355 60C4.9573 60 6.3871 61.1193 6.3871 62.5Z" fill="#FFDE21" fill-opacity="0.2"/>
<path d="M25.5484 62.5C25.5484 63.8807 24.1186 65 22.3548 65C20.5911 65 19.1613 63.8807 19.1613 62.5C19.1613 61.1193 20.5911 60 22.3548 60C24.1186 60 25.5484 61.1193 25.5484 62.5Z" fill="#FFDE21" fill-opacity="0.2"/>
<path d="M44.7097 62.5C44.7097 63.8807 43.2799 65 41.5161 65C39.7524 65 38.3226 63.8807 38.3226 62.5C38.3226 61.1193 39.7524 60 41.5161 60C43.2799 60 44.7097 61.1193 44.7097 62.5Z" fill="#FFDE21" fill-opacity="0.2"/>
<path d="M63.871 62.5C63.871 63.8807 62.4412 65 60.6774 65C58.9137 65 57.4839 63.8807 57.4839 62.5C57.4839 61.1193 58.9137 60 60.6774 60C62.4412 60 63.871 61.1193 63.871 62.5Z" fill="#FFDE21" fill-opacity="0.2"/>
<path d="M83.0323 62.5C83.0323 63.8807 81.6025 65 79.8387 65C78.075 65 76.6452 63.8807 76.6452 62.5C76.6452 61.1193 78.075 60 79.8387 60C81.6025 60 83.0323 61.1193 83.0323 62.5Z" fill="#FFDE21" fill-opacity="0.2"/>
<path d="M102.194 62.5C102.194 63.8807 100.764 65 99 65C97.2363 65 95.8064 63.8807 95.8064 62.5C95.8064 61.1193 97.2363 60 99 60C100.764 60 102.194 61.1193 102.194 62.5Z" fill="#FFDE21" fill-opacity="0.2"/>
<path d="M121.355 62.5C121.355 63.8807 119.925 65 118.161 65C116.398 65 114.968 63.8807 114.968 62.5C114.968 61.1193 116.398 60 118.161 60C119.925 60 121.355 61.1193 121.355 62.5Z" fill="#FFDE21" fill-opacity="0.2"/>
<path d="M140.516 62.5C140.516 63.8807 139.086 65 137.323 65C135.559 65 134.129 63.8807 134.129 62.5C134.129 61.1193 135.559 60 137.323 60C139.086 60 140.516 61.1193 140.516 62.5Z" fill="#FFDE21" fill-opacity="0.2"/>
<path d="M159.677 62.5C159.677 63.8807 158.248 65 156.484 65C154.72 65 153.29 63.8807 153.29 62.5C153.29 61.1193 154.72 60 156.484 60C158.248 60 159.677 61.1193 159.677 62.5Z" fill="#FFDE21" fill-opacity="0.2"/>
<path d="M178.839 62.5C178.839 63.8807 177.409 65 175.645 65C173.881 65 172.452 63.8807 172.452 62.5C172.452 61.1193 173.881 60 175.645 60C177.409 60 178.839 61.1193 178.839 62.5Z" fill="#FFDE21" fill-opacity="0.2"/>
<path d="M198 62.5C198 63.8807 196.57 65 194.806 65C193.043 65 191.613 63.8807 191.613 62.5C191.613 61.1193 193.043 60 194.806 60C196.57 60 198 61.1193 198 62.5Z" fill="#FFDE21" fill-opacity="0.2"/>
<path d="M6.3871 77.5C6.3871 78.8807 4.9573 80 3.19355 80C1.4298 80 0 78.8807 0 77.5C0 76.1193 1.4298 75 3.19355 75C4.9573 75 6.3871 76.1193 6.3871 77.5Z" fill="#FFDE21" fill-opacity="0.2"/>
<path d="M25.5484 77.5C25.5484 78.8807 24.1186 80 22.3548 80C20.5911 80 19.1613 78.8807 19.1613 77.5C19.1613 76.1193 20.5911 75 22.3548 75C24.1186 75 25.5484 76.1193 25.5484 77.5Z" fill="#FFDE21" fill-opacity="0.2"/>
<path d="M44.7097 77.5C44.7097 78.8807 43.2799 80 41.5161 80C39.7524 80 38.3226 78.8807 38.3226 77.5C38.3226 76.1193 39.7524 75 41.5161 75C43.2799 75 44.7097 76.1193 44.7097 77.5Z" fill="#FFDE21" fill-opacity="0.2"/>
<path d="M63.871 77.5C63.871 78.8807 62.4412 80 60.6774 80C58.9137 80 57.4839 78.8807 57.4839 77.5C57.4839 76.1193 58.9137 75 60.6774 75C62.4412 75 63.871 76.1193 63.871 77.5Z" fill="#FFDE21" fill-opacity="0.2"/>
<path d="M83.0323 77.5C83.0323 78.8807 81.6025 80 79.8387 80C78.075 80 76.6452 78.8807 76.6452 77.5C76.6452 76.1193 78.075 75 79.8387 75C81.6025 75 83.0323 76.1193 83.0323 77.5Z" fill="#FFDE21" fill-opacity="0.2"/>
<path d="M102.194 77.5C102.194 78.8807 100.764 80 99 80C97.2363 80 95.8064 78.8807 95.8064 77.5C95.8064 76.1193 97.2363 75 99 75C100.764 75 102.194 76.1193 102.194 77.5Z" fill="#FFDE21" fill-opacity="0.2"/>
<path d="M121.355 77.5C121.355 78.8807 119.925 80 118.161 80C116.398 80 114.968 78.8807 114.968 77.5C114.968 76.1193 116.398 75 118.161 75C119.925 75 121.355 76.1193 121.355 77.5Z" fill="#FFDE21" fill-opacity="0.2"/>
<path d="M140.516 77.5C140.516 78.8807 139.086 80 137.323 80C135.559 80 134.129 78.8807 134.129 77.5C134.129 76.1193 135.559 75 137.323 75C139.086 75 140.516 76.1193 140.516 77.5Z" fill="#FFDE21" fill-opacity="0.2"/>
<path d="M159.677 77.5C159.677 78.8807 158.248 80 156.484 80C154.72 80 153.29 78.8807 153.29 77.5C153.29 76.1193 154.72 75 156.484 75C158.248 75 159.677 76.1193 159.677 77.5Z" fill="#FFDE21" fill-opacity="0.2"/>
<path d="M178.839 77.5C178.839 78.8807 177.409 80 175.645 80C173.881 80 172.452 78.8807 172.452 77.5C172.452 76.1193 173.881 75 175.645 75C177.409 75 178.839 76.1193 178.839 77.5Z" fill="#FFDE21" fill-opacity="0.2"/>
<path d="M198 77.5C198 78.8807 196.57 80 194.806 80C193.043 80 191.613 78.8807 191.613 77.5C191.613 76.1193 193.043 75 194.806 75C196.57 75 198 76.1193 198 77.5Z" fill="#FFDE21" fill-opacity="0.2"/>
<path d="M6.3871 92.5C6.3871 93.8807 4.9573 95 3.19355 95C1.4298 95 0 93.8807 0 92.5C0 91.1193 1.4298 90 3.19355 90C4.9573 90 6.3871 91.1193 6.3871 92.5Z" fill="#FFDE21" fill-opacity="0.2"/>
<path d="M25.5484 92.5C25.5484 93.8807 24.1186 95 22.3548 95C20.5911 95 19.1613 93.8807 19.1613 92.5C19.1613 91.1193 20.5911 90 22.3548 90C24.1186 90 25.5484 91.1193 25.5484 92.5Z" fill="#FFDE21" fill-opacity="0.2"/>
<path d="M44.7097 92.5C44.7097 93.8807 43.2799 95 41.5161 95C39.7524 95 38.3226 93.8807 38.3226 92.5C38.3226 91.1193 39.7524 90 41.5161 90C43.2799 90 44.7097 91.1193 44.7097 92.5Z" fill="#FFDE21" fill-opacity="0.2"/>
<path d="M63.871 92.5C63.871 93.8807 62.4412 95 60.6774 95C58.9137 95 57.4839 93.8807 57.4839 92.5C57.4839 91.1193 58.9137 90 60.6774 90C62.4412 90 63.871 91.1193 63.871 92.5Z" fill="#FFDE21" fill-opacity="0.2"/>
<path d="M83.0323 92.5C83.0323 93.8807 81.6025 95 79.8387 95C78.075 95 76.6452 93.8807 76.6452 92.5C76.6452 91.1193 78.075 90 79.8387 90C81.6025 90 83.0323 91.1193 83.0323 92.5Z" fill="#FFDE21" fill-opacity="0.2"/>
<path d="M102.194 92.5C102.194 93.8807 100.764 95 99 95C97.2363 95 95.8064 93.8807 95.8064 92.5C95.8064 91.1193 97.2363 90 99 90C100.764 90 102.194 91.1193 102.194 92.5Z" fill="#FFDE21" fill-opacity="0.2"/>
<path d="M121.355 92.5C121.355 93.8807 119.925 95 118.161 95C116.398 95 114.968 93.8807 114.968 92.5C114.968 91.1193 116.398 90 118.161 90C119.925 90 121.355 91.1193 121.355 92.5Z" fill="#FFDE21" fill-opacity="0.2"/>
<path d="M140.516 92.5C140.516 93.8807 139.086 95 137.323 95C135.559 95 134.129 93.8807 134.129 92.5C134.129 91.1193 135.559 90 137.323 90C139.086 90 140.516 91.1193 140.516 92.5Z" fill="#FFDE21" fill-opacity="0.2"/>
<path d="M159.677 92.5C159.677 93.8807 158.248 95 156.484 95C154.72 95 153.29 93.8807 153.29 92.5C153.29 91.1193 154.72 90 156.484 90C158.248 90 159.677 91.1193 159.677 92.5Z" fill="#FFDE21" fill-opacity="0.2"/>
<path d="M178.839 92.5C178.839 93.8807 177.409 95 175.645 95C173.881 95 172.452 93.8807 172.452 92.5C172.452 91.1193 173.881 90 175.645 90C177.409 90 178.839 91.1193 178.839 92.5Z" fill="#FFDE21" fill-opacity="0.2"/>
<path d="M198 92.5C198 93.8807 196.57 95 194.806 95C193.043 95 191.613 93.8807 191.613 92.5C191.613 91.1193 193.043 90 194.806 90C196.57 90 198 91.1193 198 92.5Z" fill="#FFDE21" fill-opacity="0.2"/>
<path d="M6.3871 107.5C6.3871 108.881 4.9573 110 3.19355 110C1.4298 110 0 108.881 0 107.5C0 106.119 1.4298 105 3.19355 105C4.9573 105 6.3871 106.119 6.3871 107.5Z" fill="#FFDE21" fill-opacity="0.2"/>
<path d="M25.5484 107.5C25.5484 108.881 24.1186 110 22.3548 110C20.5911 110 19.1613 108.881 19.1613 107.5C19.1613 106.119 20.5911 105 22.3548 105C24.1186 105 25.5484 106.119 25.5484 107.5Z" fill="#FFDE21" fill-opacity="0.2"/>
<path d="M44.7097 107.5C44.7097 108.881 43.2799 110 41.5161 110C39.7524 110 38.3226 108.881 38.3226 107.5C38.3226 106.119 39.7524 105 41.5161 105C43.2799 105 44.7097 106.119 44.7097 107.5Z" fill="#FFDE21" fill-opacity="0.2"/>
<path d="M63.871 107.5C63.871 108.881 62.4412 110 60.6774 110C58.9137 110 57.4839 108.881 57.4839 107.5C57.4839 106.119 58.9137 105 60.6774 105C62.4412 105 63.871 106.119 63.871 107.5Z" fill="#FFDE21" fill-opacity="0.2"/>
<path d="M83.0323 107.5C83.0323 108.881 81.6025 110 79.8387 110C78.075 110 76.6452 108.881 76.6452 107.5C76.6452 106.119 78.075 105 79.8387 105C81.6025 105 83.0323 106.119 83.0323 107.5Z" fill="#FFDE21" fill-opacity="0.2"/>
<path d="M102.194 107.5C102.194 108.881 100.764 110 99 110C97.2363 110 95.8064 108.881 95.8064 107.5C95.8064 106.119 97.2363 105 99 105C100.764 105 102.194 106.119 102.194 107.5Z" fill="#FFDE21" fill-opacity="0.2"/>
<path d="M121.355 107.5C121.355 108.881 119.925 110 118.161 110C116.398 110 114.968 108.881 114.968 107.5C114.968 106.119 116.398 105 118.161 105C119.925 105 121.355 106.119 121.355 107.5Z" fill="#FFDE21" fill-opacity="0.2"/>
<path d="M140.516 107.5C140.516 108.881 139.086 110 137.323 110C135.559 110 134.129 108.881 134.129 107.5C134.129 106.119 135.559 105 137.323 105C139.086 105 140.516 106.119 140.516 107.5Z" fill="#FFDE21" fill-opacity="0.2"/>
<path d="M159.677 107.5C159.677 108.881 158.248 110 156.484 110C154.72 110 153.29 108.881 153.29 107.5C153.29 106.119 154.72 105 156.484 105C158.248 105 159.677 106.119 159.677 107.5Z" fill="#FFDE21" fill-opacity="0.2"/>
<path d="M178.839 107.5C178.839 108.881 177.409 110 175.645 110C173.881 110 172.452 108.881 172.452 107.5C172.452 106.119 173.881 105 175.645 105C177.409 105 178.839 106.119 178.839 107.5Z" fill="#FFDE21" fill-opacity="0.2"/>
<path d="M198 107.5C198 108.881 196.57 110 194.806 110C193.043 110 191.613 108.881 191.613 107.5C191.613 106.119 193.043 105 194.806 105C196.57 105 198 106.119 198 107.5Z" fill="#FFDE21" fill-opacity="0.2"/>
<path d="M6.3871 122.5C6.3871 123.881 4.9573 125 3.19355 125C1.4298 125 0 123.881 0 122.5C0 121.119 1.4298 120 3.19355 120C4.9573 120 6.3871 121.119 6.3871 122.5Z" fill="#FFDE21" fill-opacity="0.2"/>
<path d="M25.5484 122.5C25.5484 123.881 24.1186 125 22.3548 125C20.5911 125 19.1613 123.881 19.1613 122.5C19.1613 121.119 20.5911 120 22.3548 120C24.1186 120 25.5484 121.119 25.5484 122.5Z" fill="#FFDE21" fill-opacity="0.2"/>
<path d="M44.7097 122.5C44.7097 123.881 43.2799 125 41.5161 125C39.7524 125 38.3226 123.881 38.3226 122.5C38.3226 121.119 39.7524 120 41.5161 120C43.2799 120 44.7097 121.119 44.7097 122.5Z" fill="#FFDE21" fill-opacity="0.2"/>
<path d="M63.871 122.5C63.871 123.881 62.4412 125 60.6774 125C58.9137 125 57.4839 123.881 57.4839 122.5C57.4839 121.119 58.9137 120 60.6774 120C62.4412 120 63.871 121.119 63.871 122.5Z" fill="#FFDE21" fill-opacity="0.2"/>
<path d="M83.0323 122.5C83.0323 123.881 81.6025 125 79.8387 125C78.075 125 76.6452 123.881 76.6452 122.5C76.6452 121.119 78.075 120 79.8387 120C81.6025 120 83.0323 121.119 83.0323 122.5Z" fill="#FFDE21" fill-opacity="0.2"/>
<path d="M102.194 122.5C102.194 123.881 100.764 125 99 125C97.2363 125 95.8064 123.881 95.8064 122.5C95.8064 121.119 97.2363 120 99 120C100.764 120 102.194 121.119 102.194 122.5Z" fill="#FFDE21" fill-opacity="0.2"/>
<path d="M121.355 122.5C121.355 123.881 119.925 125 118.161 125C116.398 125 114.968 123.881 114.968 122.5C114.968 121.119 116.398 120 118.161 120C119.925 120 121.355 121.119 121.355 122.5Z" fill="#FFDE21" fill-opacity="0.2"/>
<path d="M140.516 122.5C140.516 123.881 139.086 125 137.323 125C135.559 125 134.129 123.881 134.129 122.5C134.129 121.119 135.559 120 137.323 120C139.086 120 140.516 121.119 140.516 122.5Z" fill="#FFDE21" fill-opacity="0.2"/>
<path d="M159.677 122.5C159.677 123.881 158.248 125 156.484 125C154.72 125 153.29 123.881 153.29 122.5C153.29 121.119 154.72 120 156.484 120C158.248 120 159.677 121.119 159.677 122.5Z" fill="#FFDE21" fill-opacity="0.2"/>
<path d="M178.839 122.5C178.839 123.881 177.409 125 175.645 125C173.881 125 172.452 123.881 172.452 122.5C172.452 121.119 173.881 120 175.645 120C177.409 120 178.839 121.119 178.839 122.5Z" fill="#FFDE21" fill-opacity="0.2"/>
<path d="M198 122.5C198 123.881 196.57 125 194.806 125C193.043 125 191.613 123.881 191.613 122.5C191.613 121.119 193.043 120 194.806 120C196.57 120 198 121.119 198 122.5Z" fill="#FFDE21" fill-opacity="0.2"/>
<path d="M6.3871 137.5C6.3871 138.881 4.9573 140 3.19355 140C1.4298 140 0 138.881 0 137.5C0 136.119 1.4298 135 3.19355 135C4.9573 135 6.3871 136.119 6.3871 137.5Z" fill="#FFDE21" fill-opacity="0.2"/>
<path d="M25.5484 137.5C25.5484 138.881 24.1186 140 22.3548 140C20.5911 140 19.1613 138.881 19.1613 137.5C19.1613 136.119 20.5911 135 22.3548 135C24.1186 135 25.5484 136.119 25.5484 137.5Z" fill="#FFDE21" fill-opacity="0.2"/>
<path d="M44.7097 137.5C44.7097 138.881 43.2799 140 41.5161 140C39.7524 140 38.3226 138.881 38.3226 137.5C38.3226 136.119 39.7524 135 41.5161 135C43.2799 135 44.7097 136.119 44.7097 137.5Z" fill="#FFDE21" fill-opacity="0.2"/>
<path d="M63.871 137.5C63.871 138.881 62.4412 140 60.6774 140C58.9137 140 57.4839 138.881 57.4839 137.5C57.4839 136.119 58.9137 135 60.6774 135C62.4412 135 63.871 136.119 63.871 137.5Z" fill="#FFDE21" fill-opacity="0.2"/>
<path d="M83.0323 137.5C83.0323 138.881 81.6025 140 79.8387 140C78.075 140 76.6452 138.881 76.6452 137.5C76.6452 136.119 78.075 135 79.8387 135C81.6025 135 83.0323 136.119 83.0323 137.5Z" fill="#FFDE21" fill-opacity="0.2"/>
<path d="M102.194 137.5C102.194 138.881 100.764 140 99 140C97.2363 140 95.8064 138.881 95.8064 137.5C95.8064 136.119 97.2363 135 99 135C100.764 135 102.194 136.119 102.194 137.5Z" fill="#FFDE21" fill-opacity="0.2"/>
<path d="M121.355 137.5C121.355 138.881 119.925 140 118.161 140C116.398 140 114.968 138.881 114.968 137.5C114.968 136.119 116.398 135 118.161 135C119.925 135 121.355 136.119 121.355 137.5Z" fill="#FFDE21" fill-opacity="0.2"/>
<path d="M140.516 137.5C140.516 138.881 139.086 140 137.323 140C135.559 140 134.129 138.881 134.129 137.5C134.129 136.119 135.559 135 137.323 135C139.086 135 140.516 136.119 140.516 137.5Z" fill="#FFDE21" fill-opacity="0.2"/>
<path d="M159.677 137.5C159.677 138.881 158.248 140 156.484 140C154.72 140 153.29 138.881 153.29 137.5C153.29 136.119 154.72 135 156.484 135C158.248 135 159.677 136.119 159.677 137.5Z" fill="#FFDE21" fill-opacity="0.2"/>
<path d="M178.839 137.5C178.839 138.881 177.409 140 175.645 140C173.881 140 172.452 138.881 172.452 137.5C172.452 136.119 173.881 135 175.645 135C177.409 135 178.839 136.119 178.839 137.5Z" fill="#FFDE21" fill-opacity="0.2"/>
<path d="M198 137.5C198 138.881 196.57 140 194.806 140C193.043 140 191.613 138.881 191.613 137.5C191.613 136.119 193.043 135 194.806 135C196.57 135 198 136.119 198 137.5Z" fill="#FFDE21" fill-opacity="0.2"/>
<path d="M6.3871 152.5C6.3871 153.881 4.9573 155 3.19355 155C1.4298 155 0 153.881 0 152.5C0 151.119 1.4298 150 3.19355 150C4.9573 150 6.3871 151.119 6.3871 152.5Z" fill="#FFDE21" fill-opacity="0.2"/>
<path d="M25.5484 152.5C25.5484 153.881 24.1186 155 22.3548 155C20.5911 155 19.1613 153.881 19.1613 152.5C19.1613 151.119 20.5911 150 22.3548 150C24.1186 150 25.5484 151.119 25.5484 152.5Z" fill="#FFDE21" fill-opacity="0.2"/>
<path d="M44.7097 152.5C44.7097 153.881 43.2799 155 41.5161 155C39.7524 155 38.3226 153.881 38.3226 152.5C38.3226 151.119 39.7524 150 41.5161 150C43.2799 150 44.7097 151.119 44.7097 152.5Z" fill="#FFDE21" fill-opacity="0.2"/>
<path d="M63.871 152.5C63.871 153.881 62.4412 155 60.6774 155C58.9137 155 57.4839 153.881 57.4839 152.5C57.4839 151.119 58.9137 150 60.6774 150C62.4412 150 63.871 151.119 63.871 152.5Z" fill="#FFDE21" fill-opacity="0.2"/>
<path d="M83.0323 152.5C83.0323 153.881 81.6025 155 79.8387 155C78.075 155 76.6452 153.881 76.6452 152.5C76.6452 151.119 78.075 150 79.8387 150C81.6025 150 83.0323 151.119 83.0323 152.5Z" fill="#FFDE21" fill-opacity="0.2"/>
<path d="M102.194 152.5C102.194 153.881 100.764 155 99 155C97.2363 155 95.8064 153.881 95.8064 152.5C95.8064 151.119 97.2363 150 99 150C100.764 150 102.194 151.119 102.194 152.5Z" fill="#FFDE21" fill-opacity="0.2"/>
<path d="M121.355 152.5C121.355 153.881 119.925 155 118.161 155C116.398 155 114.968 153.881 114.968 152.5C114.968 151.119 116.398 150 118.161 150C119.925 150 121.355 151.119 121.355 152.5Z" fill="#FFDE21" fill-opacity="0.2"/>
<path d="M140.516 152.5C140.516 153.881 139.086 155 137.323 155C135.559 155 134.129 153.881 134.129 152.5C134.129 151.119 135.559 150 137.323 150C139.086 150 140.516 151.119 140.516 152.5Z" fill="#FFDE21" fill-opacity="0.2"/>
<path d="M159.677 152.5C159.677 153.881 158.248 155 156.484 155C154.72 155 153.29 153.881 153.29 152.5C153.29 151.119 154.72 150 156.484 150C158.248 150 159.677 151.119 159.677 152.5Z" fill="#FFDE21" fill-opacity="0.2"/>
<path d="M178.839 152.5C178.839 153.881 177.409 155 175.645 155C173.881 155 172.452 153.881 172.452 152.5C172.452 151.119 173.881 150 175.645 150C177.409 150 178.839 151.119 178.839 152.5Z" fill="#FFDE21" fill-opacity="0.2"/>
<path d="M198 152.5C198 153.881 196.57 155 194.806 155C193.043 155 191.613 153.881 191.613 152.5C191.613 151.119 193.043 150 194.806 150C196.57 150 198 151.119 198 152.5Z" fill="#FFDE21" fill-opacity="0.2"/>
<path d="M6.3871 167.5C6.3871 168.881 4.9573 170 3.19355 170C1.4298 170 0 168.881 0 167.5C0 166.119 1.4298 165 3.19355 165C4.9573 165 6.3871 166.119 6.3871 167.5Z" fill="#FFDE21" fill-opacity="0.2"/>
<path d="M25.5484 167.5C25.5484 168.881 24.1186 170 22.3548 170C20.5911 170 19.1613 168.881 19.1613 167.5C19.1613 166.119 20.5911 165 22.3548 165C24.1186 165 25.5484 166.119 25.5484 167.5Z" fill="#FFDE21" fill-opacity="0.2"/>
<path d="M44.7097 167.5C44.7097 168.881 43.2799 170 41.5161 170C39.7524 170 38.3226 168.881 38.3226 167.5C38.3226 166.119 39.7524 165 41.5161 165C43.2799 165 44.7097 166.119 44.7097 167.5Z" fill="#FFDE21" fill-opacity="0.2"/>
<path d="M63.871 167.5C63.871 168.881 62.4412 170 60.6774 170C58.9137 170 57.4839 168.881 57.4839 167.5C57.4839 166.119 58.9137 165 60.6774 165C62.4412 165 63.871 166.119 63.871 167.5Z" fill="#FFDE21" fill-opacity="0.2"/>
<path d="M83.0323 167.5C83.0323 168.881 81.6025 170 79.8387 170C78.075 170 76.6452 168.881 76.6452 167.5C76.6452 166.119 78.075 165 79.8387 165C81.6025 165 83.0323 166.119 83.0323 167.5Z" fill="#FFDE21" fill-opacity="0.2"/>
<path d="M102.194 167.5C102.194 168.881 100.764 170 99 170C97.2363 170 95.8064 168.881 95.8064 167.5C95.8064 166.119 97.2363 165 99 165C100.764 165 102.194 166.119 102.194 167.5Z" fill="#FFDE21" fill-opacity="0.2"/>
<path d="M121.355 167.5C121.355 168.881 119.925 170 118.161 170C116.398 170 114.968 168.881 114.968 167.5C114.968 166.119 116.398 165 118.161 165C119.925 165 121.355 166.119 121.355 167.5Z" fill="#FFDE21" fill-opacity="0.2"/>
<path d="M140.516 167.5C140.516 168.881 139.086 170 137.323 170C135.559 170 134.129 168.881 134.129 167.5C134.129 166.119 135.559 165 137.323 165C139.086 165 140.516 166.119 140.516 167.5Z" fill="#FFDE21" fill-opacity="0.2"/>
<path d="M159.677 167.5C159.677 168.881 158.248 170 156.484 170C154.72 170 153.29 168.881 153.29 167.5C153.29 166.119 154.72 165 156.484 165C158.248 165 159.677 166.119 159.677 167.5Z" fill="#FFDE21" fill-opacity="0.2"/>
<path d="M178.839 167.5C178.839 168.881 177.409 170 175.645 170C173.881 170 172.452 168.881 172.452 167.5C172.452 166.119 173.881 165 175.645 165C177.409 165 178.839 166.119 178.839 167.5Z" fill="#FFDE21" fill-opacity="0.2"/>
<path d="M198 167.5C198 168.881 196.57 170 194.806 170C193.043 170 191.613 168.881 191.613 167.5C191.613 166.119 193.043 165 194.806 165C196.57 165 198 166.119 198 167.5Z" fill="#FFDE21" fill-opacity="0.2"/>
</svg>
